<?xml version="1.0" standalone="no"?><!DOCTYPE svg PUBLIC "-//W3C//DTD SVG 1.1//EN" "http://www.w3.org/Graphics/SVG/1.1/DTD/svg11.dtd"><svg xmlns="http://www.w3.org/2000/svg" version="1.1" width="833.333" height="660.833" xmlns:xlink="http://www.w3.org/1999/xlink" xlink="http://www.w3.org/1999/xlink" style="position:relative;overflow:hidden;" viewBox="87.5 50 833.333 660.833"><defs/><g><g width="175" height="311" transform="scale(1,1) translate(445.833,177.833)"><g stroke="#BFBFBF" stroke-opacity="1" stroke-width="1" stroke-dasharray="none" width="175" height="311" transform="scale(1,1) translate(0,0)" fill="#CEE7E9" fill-opacity="1"><rect width="175" height="311"/></g><g transform="scale(1,1) translate(0,0)" fill="#D8D8D8" opacity="1" stroke="#D8D8D8"><path d="M0.5,0.5 L174.5,0.5 L174.5,31.5 L0.5,31.5 z" stroke-width="0" stroke-dasharray="none"/></g><g transform="scale(1,1) translate(0,0)" fill="#FFFFFF" opacity="1" stroke="#FFFFFF"><path d="M0.5,31.5 L34,31.5 L34,62.5 L0.5,62.5 z M34,31.5 L174.5,31.5 L174.5,62.5 L34,62.5 z M0.5,62.5 L34,62.5 L34,93.5 L0.5,93.5 z M34,62.5 L174.5,62.5 L174.5,93.5 L34,93.5 z M0.5,93.5 L34,93.5 L34,124.5 L0.5,124.5 z M34,93.5 L174.5,93.5 L174.5,124.5 L34,124.5 z M0.5,124.5 L34,124.5 L34,155.5 L0.5,155.5 z M34,124.5 L174.5,124.5 L174.5,155.5 L34,155.5 z M0.5,155.5 L34,155.5 L34,186.5 L0.5,186.5 z M34,155.5 L174.5,155.5 L174.5,186.5 L34,186.5 z M0.5,186.5 L34,186.5 L34,217.5 L0.5,217.5 z M34,186.5 L174.5,186.5 L174.5,217.5 L34,217.5 z M0.5,217.5 L34,217.5 L34,248.5 L0.5,248.5 z M34,217.5 L174.5,217.5 L174.5,248.5 L34,248.5 z M0.5,248.5 L34,248.5 L34,279.5 L0.5,279.5 z M34,248.5 L174.5,248.5 L174.5,279.5 L34,279.5 z M0.5,279.5 L34,279.5 L34,310.5 L0.5,310.5 z M34,279.5 L174.5,279.5 L174.5,310.5 L34,310.5 z" stroke-width="0" stroke-dasharray="none"/></g><g width="162" height="18" transform="scale(1,1) translate(6.5,6.5)"><text width="162" height="17.708332061767578" transform="scale(1,1) translate(0,0.14583396911621094)" xml:space="preserve"><tspan xml:space="preserve" text-rendering="optimizeSpeed" font-size="16.666666666666668" font-weight="bold" font-style="normal" text-decoration="none" fill="#333333" opacity="1" x="14.781" text-anchor="start" y="14.583" textLength="132.43814086914062" style="font-family: Arial, Helvetica Neue, Helvetica, sans-serif;">songplays (Fact)</tspan></text></g><g width="20.5" height="18" transform="scale(1,1) translate(6.5,37.5)"><text width="20.5" height="15.624999046325684" transform="scale(1,1) translate(0,1.1875004768371582)" xml:space="preserve"><tspan xml:space="preserve" text-rendering="optimizeSpeed" font-size="13.88888888888889" font-weight="normal" font-style="normal" text-decoration="none" fill="#333333" opacity="1" x="0" text-anchor="start" y="12.5" textLength="18.538410186767578" style="font-family: Arial, Helvetica Neue, Helvetica, sans-serif;">PK</tspan></text></g><g width="128.5" height="18" transform="scale(1,1) translate(40,37.5)"><text width="128.5" height="15.624999046325684" transform="scale(1,1) translate(0,1.1875004768371582)" xml:space="preserve"><tspan xml:space="preserve" text-rendering="optimizeSpeed" font-size="13.88888888888889" font-weight="normal" font-style="normal" text-decoration="none" fill="#333333" opacity="1" x="0" text-anchor="start" y="12.5" textLength="74.12109375" style="font-family: Arial, Helvetica Neue, Helvetica, sans-serif;">songplay_id</tspan></text></g><g width="20.5" height="18" transform="scale(1,1) translate(6.5,68.5)"><text width="20.5" height="15.624999046325684" transform="scale(1,1) translate(0,1.1875004768371582)" xml:space="preserve"><tspan xml:space="preserve" text-rendering="optimizeSpeed" font-size="13.88888888888889" font-weight="normal" font-style="normal" text-decoration="none" fill="#333333" opacity="1" x="0" text-anchor="start" y="12.5" textLength="17.757160186767578" style="font-family: Arial, Helvetica Neue, Helvetica, sans-serif;">FK</tspan></text></g><g width="128.5" height="18" transform="scale(1,1) translate(40,68.5)"><text width="128.5" height="15.624999046325684" transform="scale(1,1) translate(0,1.1875004768371582)" xml:space="preserve"><tspan xml:space="preserve" text-rendering="optimizeSpeed" font-size="13.88888888888889" font-weight="normal" font-style="normal" text-decoration="none" fill="#333333" opacity="1" x="0" text-anchor="start" y="12.5" textLength="60.97005081176758" style="font-family: Arial, Helvetica Neue, Helvetica, sans-serif;">start_time</tspan></text></g><g width="20.5" height="18" transform="scale(1,1) translate(6.5,99.5)"><text width="20.5" height="15.624999046325684" transform="scale(1,1) translate(0,1.1875004768371582)" xml:space="preserve"><tspan xml:space="preserve" text-rendering="optimizeSpeed" font-size="13.88888888888889" font-weight="normal" font-style="normal" text-decoration="none" fill="#333333" opacity="1" x="0" text-anchor="start" y="12.5" textLength="17.757160186767578" style="font-family: Arial, Helvetica Neue, Helvetica, sans-serif;">FK</tspan></text></g><g width="128.5" height="18" transform="scale(1,1) translate(40,99.5)"><text width="128.5" height="15.624999046325684" transform="scale(1,1) translate(0,1.1875004768371582)" xml:space="preserve"><tspan xml:space="preserve" text-rendering="optimizeSpeed" font-size="13.88888888888889" font-weight="normal" font-style="normal" text-decoration="none" fill="#333333" opacity="1" x="0" text-anchor="start" y="12.5" textLength="45.556640625" style="font-family: Arial, Helvetica Neue, Helvetica, sans-serif;">user_id</tspan></text></g><g width="128.5" height="18" transform="scale(1,1) translate(40,130.5)"><text width="128.5" height="15.624999046325684" transform="scale(1,1) translate(0,1.1875004768371582)" xml:space="preserve"><tspan xml:space="preserve" text-rendering="optimizeSpeed" font-size="13.88888888888889" font-weight="normal" font-style="normal" text-decoration="none" fill="#333333" opacity="1" x="0" text-anchor="start" y="12.5" textLength="28.564451217651367" style="font-family: Arial, Helvetica Neue, Helvetica, sans-serif;">level</tspan></text></g><g width="20.5" height="18" transform="scale(1,1) translate(6.5,161.5)"><text width="20.5" height="15.624999046325684" transform="scale(1,1) translate(0,1.1875004768371582)" xml:space="preserve"><tspan xml:space="preserve" text-rendering="optimizeSpeed" font-size="13.88888888888889" font-weight="normal" font-style="normal" text-decoration="none" fill="#333333" opacity="1" x="0" text-anchor="start" y="12.5" textLength="17.757160186767578" style="font-family: Arial, Helvetica Neue, Helvetica, sans-serif;">FK</tspan></text></g><g width="128.5" height="18" transform="scale(1,1) translate(40,161.5)"><text width="128.5" height="15.624999046325684" transform="scale(1,1) translate(0,1.1875004768371582)" xml:space="preserve"><tspan xml:space="preserve" text-rendering="optimizeSpeed" font-size="13.88888888888889" font-weight="normal" font-style="normal" text-decoration="none" fill="#333333" opacity="1" x="0" text-anchor="start" y="12.5" textLength="48.649085998535156" style="font-family: Arial, Helvetica Neue, Helvetica, sans-serif;">song_id</tspan></text></g><g width="20.5" height="18" transform="scale(1,1) translate(6.5,192.5)"><text width="20.5" height="15.624999046325684" transform="scale(1,1) translate(0,1.1875004768371582)" xml:space="preserve"><tspan xml:space="preserve" text-rendering="optimizeSpeed" font-size="13.88888888888889" font-weight="normal" font-style="normal" text-decoration="none" fill="#333333" opacity="1" x="0" text-anchor="start" y="12.5" textLength="17.757160186767578" style="font-family: Arial, Helvetica Neue, Helvetica, sans-serif;">FK</tspan></text></g><g width="128.5" height="18" transform="scale(1,1) translate(40,192.5)"><text width="128.5" height="15.624999046325684" transform="scale(1,1) translate(0,1.1875004768371582)" xml:space="preserve"><tspan xml:space="preserve" text-rendering="optimizeSpeed" font-size="13.88888888888889" font-weight="normal" font-style="normal" text-decoration="none" fill="#333333" opacity="1" x="0" text-anchor="start" y="12.5" textLength="48.6328125" style="font-family: Arial, Helvetica Neue, Helvetica, sans-serif;">artist_id</tspan></text></g><g width="128.5" height="18" transform="scale(1,1) translate(40,223.5)"><text width="128.5" height="15.624999046325684" transform="scale(1,1) translate(0,1.1875004768371582)" xml:space="preserve"><tspan xml:space="preserve" text-rendering="optimizeSpeed" font-size="13.88888888888889" font-weight="normal" font-style="normal" text-decoration="none" fill="#333333" opacity="1" x="0" text-anchor="start" y="12.5" textLength="65.625" style="font-family: Arial, Helvetica Neue, Helvetica, sans-serif;">session_id</tspan></text></g><g width="128.5" height="18" transform="scale(1,1) translate(40,254.5)"><text width="128.5" height="15.624999046325684" transform="scale(1,1) translate(0,1.1875004768371582)" xml:space="preserve"><tspan xml:space="preserve" text-rendering="optimizeSpeed" font-size="13.88888888888889" font-weight="normal" font-style="normal" text-decoration="none" fill="#333333" opacity="1" x="0" text-anchor="start" y="12.5" textLength="47.867835998535156" style="font-family: Arial, Helvetica Neue, Helvetica, sans-serif;">location</tspan></text></g><g width="128.5" height="18" transform="scale(1,1) translate(40,285.5)"><text width="128.5" height="15.624999046325684" transform="scale(1,1) translate(0,1.1875004768371582)" xml:space="preserve"><tspan xml:space="preserve" text-rendering="optimizeSpeed" font-size="13.88888888888889" font-weight="normal" font-style="normal" text-decoration="none" fill="#333333" opacity="1" x="0" text-anchor="start" y="12.5" textLength="69.482421875" style="font-family: Arial, Helvetica Neue, Helvetica, sans-serif;">user_agent</tspan></text></g><g transform="scale(1,1) translate(0,0)" fill="#BFBFBF" stroke="#BFBFBF" stroke-opacity="1"><path d="M0.5,31 L174.5,31" fill="none" stroke-width="1" stroke-dasharray="none"/><g><g stroke-dasharray="none"><path d="M-0.5,30L1.5,30L1.5,32L-0.5,32z" stroke-width="0" fill="none"/></g></g></g><g transform="scale(1,1) translate(0,0)" fill="#BFBFBF" stroke="#BFBFBF" stroke-opacity="1"><path d="M0.5,62 L174.5,62" fill="none" stroke-width="1" stroke-dasharray="none"/><g><g stroke-dasharray="none"><path d="M-0.5,61L1.5,61L1.5,63L-0.5,63z" stroke-width="0" fill="none"/></g></g></g><g transform="scale(1,1) translate(0,0)" fill="#BFBFBF" stroke="#BFBFBF" stroke-opacity="1"><path d="M0.5,93 L174.5,93" fill="none" stroke-width="1" stroke-dasharray="none"/><g><g stroke-dasharray="none"><path d="M-0.5,92L1.5,92L1.5,94L-0.5,94z" stroke-width="0" fill="none"/></g></g></g><g transform="scale(1,1) translate(0,0)" fill="#BFBFBF" stroke="#BFBFBF" stroke-opacity="1"><path d="M0.5,124 L174.5,124" fill="none" stroke-width="1" stroke-dasharray="none"/><g><g stroke-dasharray="none"><path d="M-0.5,123L1.5,123L1.5,125L-0.5,125z" stroke-width="0" fill="none"/></g></g></g><g transform="scale(1,1) translate(0,0)" fill="#BFBFBF" stroke="#BFBFBF" stroke-opacity="1"><path d="M0.5,155 L174.5,155" fill="none" stroke-width="1" stroke-dasharray="none"/><g><g stroke-dasharray="none"><path d="M-0.5,154L1.5,154L1.5,156L-0.5,156z" stroke-width="0" fill="none"/></g></g></g><g transform="scale(1,1) translate(0,0)" fill="#BFBFBF" stroke="#BFBFBF" stroke-opacity="1"><path d="M0.5,186 L174.5,186" fill="none" stroke-width="1" stroke-dasharray="none"/><g><g stroke-dasharray="none"><path d="M-0.5,185L1.5,185L1.5,187L-0.5,187z" stroke-width="0" fill="none"/></g></g></g><g transform="scale(1,1) translate(0,0)" fill="#BFBFBF" stroke="#BFBFBF" stroke-opacity="1"><path d="M0.5,217 L174.5,217" fill="none" stroke-width="1" stroke-dasharray="none"/><g><g stroke-dasharray="none"><path d="M-0.5,216L1.5,216L1.5,218L-0.5,218z" stroke-width="0" fill="none"/></g></g></g><g transform="scale(1,1) translate(0,0)" fill="#BFBFBF" stroke="#BFBFBF" stroke-opacity="1"><path d="M0.5,248 L174.5,248" fill="none" stroke-width="1" stroke-dasharray="none"/><g><g stroke-dasharray="none"><path d="M-0.5,247L1.5,247L1.5,249L-0.5,249z" stroke-width="0" fill="none"/></g></g></g><g transform="scale(1,1) translate(0,0)" fill="#BFBFBF" stroke="#BFBFBF" stroke-opacity="1"><path d="M0.5,279 L174.5,279" fill="none" stroke-width="1" stroke-dasharray="none"/><g><g stroke-dasharray="none"><path d="M-0.5,278L1.5,278L1.5,280L-0.5,280z" stroke-width="0" fill="none"/></g></g></g><g transform="scale(1,1) translate(0,0)" fill="#BFBFBF" stroke="#BFBFBF" stroke-opacity="1"><path d="M33.5,31.5 L33.5,310.5" fill="none" stroke-width="1" stroke-dasharray="none"/><g><g stroke-dasharray="none"><path d="M32.5,30.5L34.5,30.5L34.5,32.5L32.5,32.5z" stroke-width="0" fill="none"/></g></g></g><g stroke="white" fill="none" opacity="0" stroke-width="3" stroke-dasharray="none" width="3" height="310" transform="scale(1,1) translate(3.5,0.5)"><rect width="3" height="310"/></g><g stroke="white" fill="none" opacity="0" stroke-width="3" stroke-dasharray="none" width="174" height="3" transform="scale(1,1) translate(0.5,3.5)"><rect width="174" height="3"/></g></g><g width="150" height="187" transform="scale(1,1) translate(100,62.5)"><g stroke="#BFBFBF" stroke-opacity="1" stroke-width="1" stroke-dasharray="none" width="150" height="187" transform="scale(1,1) translate(0,0)" fill="#CEE7E9" fill-opacity="1"><rect width="150" height="187"/></g><g transform="scale(1,1) translate(0,0)" fill="#D8D8D8" opacity="1" stroke="#D8D8D8"><path d="M0.5,0.5 L149.5,0.5 L149.5,31.5 L0.5,31.5 z" stroke-width="0" stroke-dasharray="none"/></g><g transform="scale(1,1) translate(0,0)" fill="#FFFFFF" opacity="1" stroke="#FFFFFF"><path d="M0.5,31.5 L149.5,31.5 L149.5,62.5 L0.5,62.5 z M0.5,62.5 L149.5,62.5 L149.5,93.5 L0.5,93.5 z M0.5,93.5 L149.5,93.5 L149.5,124.5 L0.5,124.5 z M0.5,124.5 L149.5,124.5 L149.5,155.5 L0.5,155.5 z M0.5,155.5 L149.5,155.5 L149.5,186.5 L0.5,186.5 z" stroke-width="0" stroke-dasharray="none"/></g><g width="137" height="18" transform="scale(1,1) translate(6.5,6.5)"><text width="137" height="17.708332061767578" transform="scale(1,1) translate(0,0.14583396911621094)" xml:space="preserve"><tspan xml:space="preserve" text-rendering="optimizeSpeed" font-size="16.666666666666668" font-weight="bold" font-style="normal" text-decoration="none" fill="#333333" opacity="1" x="46.259" text-anchor="start" y="14.583" textLength="44.482421875" style="font-family: Arial, Helvetica Neue, Helvetica, sans-serif;">users</tspan></text></g><g width="137" height="18" transform="scale(1,1) translate(6.5,37.5)"><text width="137" height="15.624999046325684" transform="scale(1,1) translate(0,1.1875004768371582)" xml:space="preserve"><tspan xml:space="preserve" text-rendering="optimizeSpeed" font-size="13.88888888888889" font-weight="normal" font-style="normal" text-decoration="none" fill="#333333" opacity="1" x="0" text-anchor="start" y="12.5" textLength="76.416015625" style="font-family: Arial, Helvetica Neue, Helvetica, sans-serif;">user_id - PK</tspan></text></g><g width="137" height="18" transform="scale(1,1) translate(6.5,68.5)"><text width="137" height="15.624999046325684" transform="scale(1,1) translate(0,1.1875004768371582)" xml:space="preserve"><tspan xml:space="preserve" text-rendering="optimizeSpeed" font-size="13.88888888888889" font-weight="normal" font-style="normal" text-decoration="none" fill="#333333" opacity="1" x="0" text-anchor="start" y="12.5" textLength="64.82746887207031" style="font-family: Arial, Helvetica Neue, Helvetica, sans-serif;">first_name</tspan></text></g><g width="137" height="18" transform="scale(1,1) translate(6.5,99.5)"><text width="137" height="15.624999046325684" transform="scale(1,1) translate(0,1.1875004768371582)" xml:space="preserve"><tspan xml:space="preserve" text-rendering="optimizeSpeed" font-size="13.88888888888889" font-weight="normal" font-style="normal" text-decoration="none" fill="#333333" opacity="1" x="0" text-anchor="start" y="12.5" textLength="64.07877349853516" style="font-family: Arial, Helvetica Neue, Helvetica, sans-serif;">last_name</tspan></text></g><g width="137" height="18" transform="scale(1,1) translate(6.5,130.5)"><text width="137" height="15.624999046325684" transform="scale(1,1) translate(0,1.1875004768371582)" xml:space="preserve"><tspan xml:space="preserve" text-rendering="optimizeSpeed" font-size="13.88888888888889" font-weight="normal" font-style="normal" text-decoration="none" fill="#333333" opacity="1" x="0" text-anchor="start" y="12.5" textLength="42.48046875" style="font-family: Arial, Helvetica Neue, Helvetica, sans-serif;">gender</tspan></text></g><g width="137" height="18" transform="scale(1,1) translate(6.5,161.5)"><text width="137" height="15.624999046325684" transform="scale(1,1) translate(0,1.1875004768371582)" xml:space="preserve"><tspan xml:space="preserve" text-rendering="optimizeSpeed" font-size="13.88888888888889" font-weight="normal" font-style="normal" text-decoration="none" fill="#333333" opacity="1" x="0" text-anchor="start" y="12.5" textLength="28.564451217651367" style="font-family: Arial, Helvetica Neue, Helvetica, sans-serif;">level</tspan></text></g><g transform="scale(1,1) translate(0,0)" fill="#BFBFBF" stroke="#BFBFBF" stroke-opacity="1"><path d="M0.5,31 L149.5,31" fill="none" stroke-width="1" stroke-dasharray="none"/><g><g stroke-dasharray="none"><path d="M-0.5,30L1.5,30L1.5,32L-0.5,32z" stroke-width="0" fill="none"/></g></g></g><g transform="scale(1,1) translate(0,0)" fill="#BFBFBF" stroke="#BFBFBF" stroke-opacity="1"><path d="M0.5,62 L149.5,62" fill="none" stroke-width="1" stroke-dasharray="none"/><g><g stroke-dasharray="none"><path d="M-0.5,61L1.5,61L1.5,63L-0.5,63z" stroke-width="0" fill="none"/></g></g></g><g transform="scale(1,1) translate(0,0)" fill="#BFBFBF" stroke="#BFBFBF" stroke-opacity="1"><path d="M0.5,93 L149.5,93" fill="none" stroke-width="1" stroke-dasharray="none"/><g><g stroke-dasharray="none"><path d="M-0.5,92L1.5,92L1.5,94L-0.5,94z" stroke-width="0" fill="none"/></g></g></g><g transform="scale(1,1) translate(0,0)" fill="#BFBFBF" stroke="#BFBFBF" stroke-opacity="1"><path d="M0.5,124 L149.5,124" fill="none" stroke-width="1" stroke-dasharray="none"/><g><g stroke-dasharray="none"><path d="M-0.5,123L1.5,123L1.5,125L-0.5,125z" stroke-width="0" fill="none"/></g></g></g><g transform="scale(1,1) translate(0,0)" fill="#BFBFBF" stroke="#BFBFBF" stroke-opacity="1"><path d="M0.5,155 L149.5,155" fill="none" stroke-width="1" stroke-dasharray="none"/><g><g stroke-dasharray="none"><path d="M-0.5,154L1.5,154L1.5,156L-0.5,156z" stroke-width="0" fill="none"/></g></g></g><g stroke="white" fill="none" opacity="0" stroke-width="3" stroke-dasharray="none" width="3" height="186" transform="scale(1,1) translate(3.5,0.5)"><rect width="3" height="186"/></g><g stroke="white" fill="none" opacity="0" stroke-width="3" stroke-dasharray="none" width="149" height="3" transform="scale(1,1) translate(0.5,3.5)"><rect width="149" height="3"/></g></g><g width="150" height="187" transform="scale(1,1) translate(725,62.5)"><g stroke="#BFBFBF" stroke-opacity="1" stroke-width="1" stroke-dasharray="none" width="150" height="187" transform="scale(1,1) translate(0,0)" fill="#CEE7E9" fill-opacity="1"><rect width="150" height="187"/></g><g transform="scale(1,1) translate(0,0)" fill="#D8D8D8" opacity="1" stroke="#D8D8D8"><path d="M0.5,0.5 L149.5,0.5 L149.5,31.5 L0.5,31.5 z" stroke-width="0" stroke-dasharray="none"/></g><g transform="scale(1,1) translate(0,0)" fill="#FFFFFF" opacity="1" stroke="#FFFFFF"><path d="M0.5,31.5 L149.5,31.5 L149.5,62.5 L0.5,62.5 z M0.5,62.5 L149.5,62.5 L149.5,93.5 L0.5,93.5 z M0.5,93.5 L149.5,93.5 L149.5,124.5 L0.5,124.5 z M0.5,124.5 L149.5,124.5 L149.5,155.5 L0.5,155.5 z M0.5,155.5 L149.5,155.5 L149.5,186.5 L0.5,186.5 z" stroke-width="0" stroke-dasharray="none"/></g><g width="137" height="18" transform="scale(1,1) translate(6.5,6.5)"><text width="137" height="17.708332061767578" transform="scale(1,1) translate(0,0.14583396911621094)" xml:space="preserve"><tspan xml:space="preserve" text-rendering="optimizeSpeed" font-size="16.666666666666668" font-weight="bold" font-style="normal" text-decoration="none" fill="#333333" opacity="1" x="48.594" text-anchor="start" y="14.583" textLength="39.811195373535156" style="font-family: Arial, Helvetica Neue, Helvetica, sans-serif;">song</tspan></text></g><g width="137" height="18" transform="scale(1,1) translate(6.5,37.5)"><text width="137" height="15.624999046325684" transform="scale(1,1) translate(0,1.1875004768371582)" xml:space="preserve"><tspan xml:space="preserve" text-rendering="optimizeSpeed" font-size="13.88888888888889" font-weight="normal" font-style="normal" text-decoration="none" fill="#333333" opacity="1" x="0" text-anchor="start" y="12.5" textLength="79.50846099853516" style="font-family: Arial, Helvetica Neue, Helvetica, sans-serif;">song_id - PK</tspan></text></g><g width="137" height="18" transform="scale(1,1) translate(6.5,68.5)"><text width="137" height="15.624999046325684" transform="scale(1,1) translate(0,1.1875004768371582)" xml:space="preserve"><tspan xml:space="preserve" text-rendering="optimizeSpeed" font-size="13.88888888888889" font-weight="normal" font-style="normal" text-decoration="none" fill="#333333" opacity="1" x="0" text-anchor="start" y="12.5" textLength="21.614582061767578" style="font-family: Arial, Helvetica Neue, Helvetica, sans-serif;">title</tspan></text></g><g width="137" height="18" transform="scale(1,1) translate(6.5,99.5)"><text width="137" height="15.624999046325684" transform="scale(1,1) translate(0,1.1875004768371582)" xml:space="preserve"><tspan xml:space="preserve" text-rendering="optimizeSpeed" font-size="13.88888888888889" font-weight="normal" font-style="normal" text-decoration="none" fill="#333333" opacity="1" x="0" text-anchor="start" y="12.5" textLength="55.566402435302734" style="font-family: Arial, Helvetica Neue, Helvetica, sans-serif;">artists_id</tspan></text></g><g width="137" height="18" transform="scale(1,1) translate(6.5,130.5)"><text width="137" height="15.624999046325684" transform="scale(1,1) translate(0,1.1875004768371582)" xml:space="preserve"><tspan xml:space="preserve" text-rendering="optimizeSpeed" font-size="13.88888888888889" font-weight="normal" font-style="normal" text-decoration="none" fill="#333333" opacity="1" x="0" text-anchor="start" y="12.5" textLength="26.253253936767578" style="font-family: Arial, Helvetica Neue, Helvetica, sans-serif;">year</tspan></text></g><g width="137" height="18" transform="scale(1,1) translate(6.5,161.5)"><text width="137" height="15.624999046325684" transform="scale(1,1) translate(0,1.1875004768371582)" xml:space="preserve"><tspan xml:space="preserve" text-rendering="optimizeSpeed" font-size="13.88888888888889" font-weight="normal" font-style="normal" text-decoration="none" fill="#333333" opacity="1" x="0" text-anchor="start" y="12.5" textLength="50.17903518676758" style="font-family: Arial, Helvetica Neue, Helvetica, sans-serif;">duration</tspan></text></g><g transform="scale(1,1) translate(0,0)" fill="#BFBFBF" stroke="#BFBFBF" stroke-opacity="1"><path d="M0.5,31 L149.5,31" fill="none" stroke-width="1" stroke-dasharray="none"/><g><g stroke-dasharray="none"><path d="M-0.5,30L1.5,30L1.5,32L-0.5,32z" stroke-width="0" fill="none"/></g></g></g><g transform="scale(1,1) translate(0,0)" fill="#BFBFBF" stroke="#BFBFBF" stroke-opacity="1"><path d="M0.5,62 L149.5,62" fill="none" stroke-width="1" stroke-dasharray="none"/><g><g stroke-dasharray="none"><path d="M-0.5,61L1.5,61L1.5,63L-0.5,63z" stroke-width="0" fill="none"/></g></g></g><g transform="scale(1,1) translate(0,0)" fill="#BFBFBF" stroke="#BFBFBF" stroke-opacity="1"><path d="M0.5,93 L149.5,93" fill="none" stroke-width="1" stroke-dasharray="none"/><g><g stroke-dasharray="none"><path d="M-0.5,92L1.5,92L1.5,94L-0.5,94z" stroke-width="0" fill="none"/></g></g></g><g transform="scale(1,1) translate(0,0)" fill="#BFBFBF" stroke="#BFBFBF" stroke-opacity="1"><path d="M0.5,124 L149.5,124" fill="none" stroke-width="1" stroke-dasharray="none"/><g><g stroke-dasharray="none"><path d="M-0.5,123L1.5,123L1.5,125L-0.5,125z" stroke-width="0" fill="none"/></g></g></g><g transform="scale(1,1) translate(0,0)" fill="#BFBFBF" stroke="#BFBFBF" stroke-opacity="1"><path d="M0.5,155 L149.5,155" fill="none" stroke-width="1" stroke-dasharray="none"/><g><g stroke-dasharray="none"><path d="M-0.5,154L1.5,154L1.5,156L-0.5,156z" stroke-width="0" fill="none"/></g></g></g><g stroke="white" fill="none" opacity="0" stroke-width="3" stroke-dasharray="none" width="3" height="186" transform="scale(1,1) translate(3.5,0.5)"><rect width="3" height="186"/></g><g stroke="white" fill="none" opacity="0" stroke-width="3" stroke-dasharray="none" width="149" height="3" transform="scale(1,1) translate(0.5,3.5)"><rect width="149" height="3"/></g></g><g width="150" height="187" transform="scale(1,1) translate(100,489.833)"><g stroke="#BFBFBF" stroke-opacity="1" stroke-width="1" stroke-dasharray="none" width="150" height="187" transform="scale(1,1) translate(0,0)" fill="#CEE7E9" fill-opacity="1"><rect width="150" height="187"/></g><g transform="scale(1,1) translate(0,0)" fill="#D8D8D8" opacity="1" stroke="#D8D8D8"><path d="M0.5,0.5 L149.5,0.5 L149.5,31.5 L0.5,31.5 z" stroke-width="0" stroke-dasharray="none"/></g><g transform="scale(1,1) translate(0,0)" fill="#FFFFFF" opacity="1" stroke="#FFFFFF"><path d="M0.5,31.5 L149.5,31.5 L149.5,62.5 L0.5,62.5 z M0.5,62.5 L149.5,62.5 L149.5,93.5 L0.5,93.5 z M0.5,93.5 L149.5,93.5 L149.5,124.5 L0.5,124.5 z M0.5,124.5 L149.5,124.5 L149.5,155.5 L0.5,155.5 z M0.5,155.5 L149.5,155.5 L149.5,186.5 L0.5,186.5 z" stroke-width="0" stroke-dasharray="none"/></g><g width="137" height="18" transform="scale(1,1) translate(6.5,6.5)"><text width="137" height="17.708332061767578" transform="scale(1,1) translate(0,0.14583396911621094)" xml:space="preserve"><tspan xml:space="preserve" text-rendering="optimizeSpeed" font-size="16.666666666666668" font-weight="bold" font-style="normal" text-decoration="none" fill="#333333" opacity="1" x="43.484" text-anchor="start" y="14.583" textLength="50.03255081176758" style="font-family: Arial, Helvetica Neue, Helvetica, sans-serif;">artists</tspan></text></g><g width="137" height="18" transform="scale(1,1) translate(6.5,37.5)"><text width="137" height="15.624999046325684" transform="scale(1,1) translate(0,1.1875004768371582)" xml:space="preserve"><tspan xml:space="preserve" text-rendering="optimizeSpeed" font-size="13.88888888888889" font-weight="normal" font-style="normal" text-decoration="none" fill="#333333" opacity="1" x="0" text-anchor="start" y="12.5" textLength="79.4921875" style="font-family: Arial, Helvetica Neue, Helvetica, sans-serif;">artist_id - PK</tspan></text></g><g width="137" height="18" transform="scale(1,1) translate(6.5,68.5)"><text width="137" height="15.624999046325684" transform="scale(1,1) translate(0,1.1875004768371582)" xml:space="preserve"><tspan xml:space="preserve" text-rendering="optimizeSpeed" font-size="13.88888888888889" font-weight="normal" font-style="normal" text-decoration="none" fill="#333333" opacity="1" x="0" text-anchor="start" y="12.5" textLength="34.74934768676758" style="font-family: Arial, Helvetica Neue, Helvetica, sans-serif;">name</tspan></text></g><g width="137" height="18" transform="scale(1,1) translate(6.5,99.5)"><text width="137" height="15.624999046325684" transform="scale(1,1) translate(0,1.1875004768371582)" xml:space="preserve"><tspan xml:space="preserve" text-rendering="optimizeSpeed" font-size="13.88888888888889" font-weight="normal" font-style="normal" text-decoration="none" fill="#333333" opacity="1" x="0" text-anchor="start" y="12.5" textLength="47.867835998535156" style="font-family: Arial, Helvetica Neue, Helvetica, sans-serif;">location</tspan></text></g><g width="137" height="18" transform="scale(1,1) translate(6.5,130.5)"><text width="137" height="15.624999046325684" transform="scale(1,1) translate(0,1.1875004768371582)" xml:space="preserve"><tspan xml:space="preserve" text-rendering="optimizeSpeed" font-size="13.88888888888889" font-weight="normal" font-style="normal" text-decoration="none" fill="#333333" opacity="1" x="0" text-anchor="start" y="12.5" textLength="44.775390625" style="font-family: Arial, Helvetica Neue, Helvetica, sans-serif;">latitude</tspan></text></g><g width="137" height="18" transform="scale(1,1) translate(6.5,161.5)"><text width="137" height="15.624999046325684" transform="scale(1,1) translate(0,1.1875004768371582)" xml:space="preserve"><tspan xml:space="preserve" text-rendering="optimizeSpeed" font-size="13.88888888888889" font-weight="normal" font-style="normal" text-decoration="none" fill="#333333" opacity="1" x="0" text-anchor="start" y="12.5" textLength="56.363929748535156" style="font-family: Arial, Helvetica Neue, Helvetica, sans-serif;">longitude</tspan></text></g><g transform="scale(1,1) translate(0,0)" fill="#BFBFBF" stroke="#BFBFBF" stroke-opacity="1"><path d="M0.5,31 L149.5,31" fill="none" stroke-width="1" stroke-dasharray="none"/><g><g stroke-dasharray="none"><path d="M-0.5,30L1.5,30L1.5,32L-0.5,32z" stroke-width="0" fill="none"/></g></g></g><g transform="scale(1,1) translate(0,0)" fill="#BFBFBF" stroke="#BFBFBF" stroke-opacity="1"><path d="M0.5,62 L149.5,62" fill="none" stroke-width="1" stroke-dasharray="none"/><g><g stroke-dasharray="none"><path d="M-0.5,61L1.5,61L1.5,63L-0.5,63z" stroke-width="0" fill="none"/></g></g></g><g transform="scale(1,1) translate(0,0)" fill="#BFBFBF" stroke="#BFBFBF" stroke-opacity="1"><path d="M0.5,93 L149.5,93" fill="none" stroke-width="1" stroke-dasharray="none"/><g><g stroke-dasharray="none"><path d="M-0.5,92L1.5,92L1.5,94L-0.5,94z" stroke-width="0" fill="none"/></g></g></g><g transform="scale(1,1) translate(0,0)" fill="#BFBFBF" stroke="#BFBFBF" stroke-opacity="1"><path d="M0.5,124 L149.5,124" fill="none" stroke-width="1" stroke-dasharray="none"/><g><g stroke-dasharray="none"><path d="M-0.5,123L1.5,123L1.5,125L-0.5,125z" stroke-width="0" fill="none"/></g></g></g><g transform="scale(1,1) translate(0,0)" fill="#BFBFBF" stroke="#BFBFBF" stroke-opacity="1"><path d="M0.5,155 L149.5,155" fill="none" stroke-width="1" stroke-dasharray="none"/><g><g stroke-dasharray="none"><path d="M-0.5,154L1.5,154L1.5,156L-0.5,156z" stroke-width="0" fill="none"/></g></g></g><g stroke="white" fill="none" opacity="0" stroke-width="3" stroke-dasharray="none" width="3" height="186" transform="scale(1,1) translate(3.5,0.5)"><rect width="3" height="186"/></g><g stroke="white" fill="none" opacity="0" stroke-width="3" stroke-dasharray="none" width="149" height="3" transform="scale(1,1) translate(0.5,3.5)"><rect width="149" height="3"/></g></g><g width="150" height="249" transform="scale(1,1) translate(758.333,449.333)"><g stroke="#BFBFBF" stroke-opacity="1" stroke-width="1" stroke-dasharray="none" width="150" height="249" transform="scale(1,1) translate(0,0)" fill="#CEE7E9" fill-opacity="1"><rect width="150" height="249"/></g><g transform="scale(1,1) translate(0,0)" fill="#D8D8D8" opacity="1" stroke="#D8D8D8"><path d="M0.5,0.5 L149.5,0.5 L149.5,31.5 L0.5,31.5 z" stroke-width="0" stroke-dasharray="none"/></g><g transform="scale(1,1) translate(0,0)" fill="#FFFFFF" opacity="1" stroke="#FFFFFF"><path d="M0.5,31.5 L149.5,31.5 L149.5,62.5 L0.5,62.5 z M0.5,62.5 L149.5,62.5 L149.5,93.5 L0.5,93.5 z M0.5,93.5 L149.5,93.5 L149.5,124.5 L0.5,124.5 z M0.5,124.5 L149.5,124.5 L149.5,155.5 L0.5,155.5 z M0.5,155.5 L149.5,155.5 L149.5,186.5 L0.5,186.5 z M0.5,186.5 L149.5,186.5 L149.5,217.5 L0.5,217.5 z M0.5,217.5 L149.5,217.5 L149.5,248.5 L0.5,248.5 z" stroke-width="0" stroke-dasharray="none"/></g><g width="137" height="18" transform="scale(1,1) translate(6.5,6.5)"><text width="137" height="17.708332061767578" transform="scale(1,1) translate(0,0.14583396911621094)" xml:space="preserve"><tspan xml:space="preserve" text-rendering="optimizeSpeed" font-size="16.666666666666668" font-weight="bold" font-style="normal" text-decoration="none" fill="#333333" opacity="1" x="51.361" text-anchor="start" y="14.583" textLength="34.27734375" style="font-family: Arial, Helvetica Neue, Helvetica, sans-serif;">time</tspan></text></g><g width="137" height="18" transform="scale(1,1) translate(6.5,37.5)"><text width="137" height="15.624999046325684" transform="scale(1,1) translate(0,1.1875004768371582)" xml:space="preserve"><tspan xml:space="preserve" text-rendering="optimizeSpeed" font-size="13.88888888888889" font-weight="normal" font-style="normal" text-decoration="none" fill="#333333" opacity="1" x="0" text-anchor="start" y="12.5" textLength="91.82942199707031" style="font-family: Arial, Helvetica Neue, Helvetica, sans-serif;">start_time - PK</tspan></text></g><g width="137" height="18" transform="scale(1,1) translate(6.5,68.5)"><text width="137" height="15.624999046325684" transform="scale(1,1) translate(0,1.1875004768371582)" xml:space="preserve"><tspan xml:space="preserve" text-rendering="optimizeSpeed" font-size="13.88888888888889" font-weight="normal" font-style="normal" text-decoration="none" fill="#333333" opacity="1" x="0" text-anchor="start" y="12.5" textLength="27.034503936767578" style="font-family: Arial, Helvetica Neue, Helvetica, sans-serif;">hour</tspan></text></g><g width="137" height="18" transform="scale(1,1) translate(6.5,99.5)"><text width="137" height="15.624999046325684" transform="scale(1,1) translate(0,1.1875004768371582)" xml:space="preserve"><tspan xml:space="preserve" text-rendering="optimizeSpeed" font-size="13.88888888888889" font-weight="normal" font-style="normal" text-decoration="none" fill="#333333" opacity="1" x="0" text-anchor="start" y="12.5" textLength="21.370441436767578" style="font-family: Arial, Helvetica Neue, Helvetica, sans-serif;">day</tspan></text></g><g width="137" height="18" transform="scale(1,1) translate(6.5,130.5)"><text width="137" height="15.624999046325684" transform="scale(1,1) translate(0,1.1875004768371582)" xml:space="preserve"><tspan xml:space="preserve" text-rendering="optimizeSpeed" font-size="13.88888888888889" font-weight="normal" font-style="normal" text-decoration="none" fill="#333333" opacity="1" x="0" text-anchor="start" y="12.5" textLength="32.421875" style="font-family: Arial, Helvetica Neue, Helvetica, sans-serif;">week</tspan></text></g><g width="137" height="18" transform="scale(1,1) translate(6.5,161.5)"><text width="137" height="15.624999046325684" transform="scale(1,1) translate(0,1.1875004768371582)" xml:space="preserve"><tspan xml:space="preserve" text-rendering="optimizeSpeed" font-size="13.88888888888889" font-weight="normal" font-style="normal" text-decoration="none" fill="#333333" opacity="1" x="0" text-anchor="start" y="12.5" textLength="38.60676956176758" style="font-family: Arial, Helvetica Neue, Helvetica, sans-serif;">month</tspan></text></g><g width="137" height="18" transform="scale(1,1) translate(6.5,192.5)"><text width="137" height="15.624999046325684" transform="scale(1,1) translate(0,1.1875004768371582)" xml:space="preserve"><tspan xml:space="preserve" text-rendering="optimizeSpeed" font-size="13.88888888888889" font-weight="normal" font-style="normal" text-decoration="none" fill="#333333" opacity="1" x="0" text-anchor="start" y="12.5" textLength="26.253253936767578" style="font-family: Arial, Helvetica Neue, Helvetica, sans-serif;">year</tspan></text></g><g width="137" height="18" transform="scale(1,1) translate(6.5,223.5)"><text width="137" height="15.624999046325684" transform="scale(1,1) translate(0,1.1875004768371582)" xml:space="preserve"><tspan xml:space="preserve" text-rendering="optimizeSpeed" font-size="13.88888888888889" font-weight="normal" font-style="normal" text-decoration="none" fill="#333333" opacity="1" x="0" text-anchor="start" y="12.5" textLength="53.776039123535156" style="font-family: Arial, Helvetica Neue, Helvetica, sans-serif;">weekday</tspan></text></g><g transform="scale(1,1) translate(0,0)" fill="#BFBFBF" stroke="#BFBFBF" stroke-opacity="1"><path d="M0.5,31 L149.5,31" fill="none" stroke-width="1" stroke-dasharray="none"/><g><g stroke-dasharray="none"><path d="M-0.5,30L1.5,30L1.5,32L-0.5,32z" stroke-width="0" fill="none"/></g></g></g><g transform="scale(1,1) translate(0,0)" fill="#BFBFBF" stroke="#BFBFBF" stroke-opacity="1"><path d="M0.5,62 L149.5,62" fill="none" stroke-width="1" stroke-dasharray="none"/><g><g stroke-dasharray="none"><path d="M-0.5,61L1.5,61L1.5,63L-0.5,63z" stroke-width="0" fill="none"/></g></g></g><g transform="scale(1,1) translate(0,0)" fill="#BFBFBF" stroke="#BFBFBF" stroke-opacity="1"><path d="M0.5,93 L149.5,93" fill="none" stroke-width="1" stroke-dasharray="none"/><g><g stroke-dasharray="none"><path d="M-0.5,92L1.5,92L1.5,94L-0.5,94z" stroke-width="0" fill="none"/></g></g></g><g transform="scale(1,1) translate(0,0)" fill="#BFBFBF" stroke="#BFBFBF" stroke-opacity="1"><path d="M0.5,124 L149.5,124" fill="none" stroke-width="1" stroke-dasharray="none"/><g><g stroke-dasharray="none"><path d="M-0.5,123L1.5,123L1.5,125L-0.5,125z" stroke-width="0" fill="none"/></g></g></g><g transform="scale(1,1) translate(0,0)" fill="#BFBFBF" stroke="#BFBFBF" stroke-opacity="1"><path d="M0.5,155 L149.5,155" fill="none" stroke-width="1" stroke-dasharray="none"/><g><g stroke-dasharray="none"><path d="M-0.5,154L1.5,154L1.5,156L-0.5,156z" stroke-width="0" fill="none"/></g></g></g><g transform="scale(1,1) translate(0,0)" fill="#BFBFBF" stroke="#BFBFBF" stroke-opacity="1"><path d="M0.5,186 L149.5,186" fill="none" stroke-width="1" stroke-dasharray="none"/><g><g stroke-dasharray="none"><path d="M-0.5,185L1.5,185L1.5,187L-0.5,187z" stroke-width="0" fill="none"/></g></g></g><g transform="scale(1,1) translate(0,0)" fill="#BFBFBF" stroke="#BFBFBF" stroke-opacity="1"><path d="M0.5,217 L149.5,217" fill="none" stroke-width="1" stroke-dasharray="none"/><g><g stroke-dasharray="none"><path d="M-0.5,216L1.5,216L1.5,218L-0.5,218z" stroke-width="0" fill="none"/></g></g></g><g stroke="white" fill="none" opacity="0" stroke-width="3" stroke-dasharray="none" width="3" height="248" transform="scale(1,1) translate(3.5,0.5)"><rect width="3" height="248"/></g><g stroke="white" fill="none" opacity="0" stroke-width="3" stroke-dasharray="none" width="149" height="3" transform="scale(1,1) translate(0.5,3.5)"><rect width="149" height="3"/></g></g><g width="104.167" height="240.5" transform="scale(1,1) translate(620.833,108.333)"><g transform="scale(1,1) translate(0,0)" fill="#000000" stroke="#000000" stroke-opacity="1"><path d="M0,240.5 L104.167,0" fill="none" stroke-width="1" stroke-dasharray="none"/><g><g stroke-dasharray="none"><path d="M-1,239.5L1,239.5L1,241.5L-1,241.5z" stroke-width="0" fill="none"/></g></g></g></g><g width="195.833" height="177.333" transform="scale(1,1) translate(250,109.5)"><g transform="scale(1,1) translate(0,0)" fill="#000000" stroke="#000000" stroke-opacity="1"><path d="M195.833,177.333 L0,0" fill="none" stroke-width="1" stroke-dasharray="none"/><g><g stroke-dasharray="none"><path d="M194.833,176.333L196.833,176.333L196.833,178.333L194.833,178.333z" stroke-width="0" fill="none"/></g></g></g></g><g width="195.833" height="157" transform="scale(1,1) translate(250,379.833)"><g transform="scale(1,1) translate(0,0)" fill="#000000" stroke="#000000" stroke-opacity="1"><path d="M195.833,0 L0,157" fill="none" stroke-width="1" stroke-dasharray="none"/><g><g stroke-dasharray="none"><path d="M194.833,-1L196.833,-1L196.833,1L194.833,1z" stroke-width="0" fill="none"/></g></g></g></g><g width="137.5" height="240.5" transform="scale(1,1) translate(620.833,255.833)"><g transform="scale(1,1) translate(0,0)" fill="#000000" stroke="#000000" stroke-opacity="1"><path d="M0,0 L137.5,240.5" fill="none" stroke-width="1" stroke-dasharray="none"/><g><g stroke-dasharray="none"><path d="M-1,-1L1,-1L1,1L-1,1z" stroke-width="0" fill="none"/></g></g></g></g></g></svg>